<svg width="128" height="126" viewBox="0 0 128 126" fill="none" xmlns="http://www.w3.org/2000/svg">
<path d="M127.375 28.8125C127.375 29.8542 127.062 30.75 126.438 31.5C125.854 32.2083 125.042 32.6875 124 32.9375L95.4375 39.1875C93.9375 39.5208 92.9583 39.9792 92.5 40.5625C92.0417 41.1042 91.8125 42.1875 91.8125 43.8125V101C91.8125 105.542 91.0625 109.396 89.5625 112.562C88.1042 115.771 86.1875 118.354 83.8125 120.312C81.4375 122.271 78.9375 123.688 76.3125 124.562C73.6875 125.479 71.2292 125.938 68.9375 125.938C63.7292 125.938 59.4583 124.417 56.125 121.375C52.8333 118.375 51.1875 114.479 51.1875 109.688C51.1875 104.979 52.6875 101.062 55.6875 97.9375C58.6875 94.8125 63.3125 92.5833 69.5625 91.25L79.5 89.1875C82.375 88.6042 83.6667 86.7292 83.375 83.5625L83.25 14.0625C83.25 10.6042 85.3125 8.41667 89.4375 7.5L121.5 0.5C123.125 0.166667 124.5 0.479167 125.625 1.4375C126.792 2.35417 127.375 3.64583 127.375 5.3125V28.8125ZM4.25 31.75C3.08333 31.75 2.08333 31.3333 1.25 30.5C0.416667 29.6667 0 28.6667 0 27.5C0 26.375 0.416667 25.3958 1.25 24.5625C2.08333 23.7292 3.08333 23.3125 4.25 23.3125H60.125C61.2917 23.3125 62.2917 23.7292 63.125 24.5625C63.9583 25.3958 64.375 26.375 64.375 27.5C64.375 28.6667 63.9583 29.6667 63.125 30.5C62.2917 31.3333 61.2917 31.75 60.125 31.75H4.25ZM4.25 54C3.04167 54 2.02083 53.5833 1.1875 52.75C0.395833 51.9167 0 50.8958 0 49.6875C0 48.5208 0.416667 47.5417 1.25 46.75C2.08333 45.9583 3.08333 45.5625 4.25 45.5625H60.125C61.2917 45.5625 62.2917 45.9583 63.125 46.75C63.9583 47.5417 64.375 48.5208 64.375 49.6875C64.375 50.8958 63.9583 51.9167 63.125 52.75C62.3333 53.5833 61.3333 54 60.125 54H4.25ZM4.25 76.25C3.04167 76.25 2.02083 75.8542 1.1875 75.0625C0.395833 74.2292 0 73.2083 0 72C0 70.8333 0.416667 69.8542 1.25 69.0625C2.08333 68.2292 3.08333 67.8125 4.25 67.8125H60.125C61.2917 67.8125 62.2917 68.2292 63.125 69.0625C63.9583 69.8542 64.375 70.8333 64.375 72C64.375 73.2083 63.9583 74.2292 63.125 75.0625C62.3333 75.8542 61.3333 76.25 60.125 76.25H4.25Z" fill="white"/>
</svg>
